<svg version="1.1" xmlns="http://www.w3.org/2000/svg" xmlns:xlink="http://www.w3.org/1999/xlink" width="1216.34521484375" height="590"><defs/><g><g><rect fill="#ffffff" stroke="none" x="168" y="184" width="144" height="71" transform="matrix(1 0 0 1 -158 -22)"/></g><g><path fill="none" stroke="#000000" paint-order="fill stroke markers" d=" M 10 162 L 154 162 L 154 233 L 10 233 L 10 162 Z Z" stroke-miterlimit="10" stroke-dasharray=""/></g><g><path fill="none" stroke="#000000" paint-order="fill stroke markers" d=" M 10 200 L 154 200" stroke-miterlimit="10" stroke-dasharray=""/></g><g><path fill="none" stroke="#000000" paint-order="fill stroke markers" d=" M 10 210 L 154 210" stroke-miterlimit="10" stroke-dasharray=""/></g><g><g><path fill="none" stroke="none"/><text fill="#000000" stroke="none" font-family="Arial" font-size="13px" font-style="normal" font-weight="normal" text-decoration="undefined" x="240.5" y="195.5" text-anchor="middle" dominant-baseline="central" transform="matrix(1 0 0 1 -158 -22)">«boundary»</text></g></g><g><g><path fill="none" stroke="none"/><text fill="#000000" stroke="none" font-family="Arial" font-size="13px" font-style="normal" font-weight="bold" text-decoration="undefined" x="240.5" y="210.5" text-anchor="middle" dominant-baseline="central" transform="matrix(1 0 0 1 -158 -22)">CLI</text></g></g><g><g><path fill="none" stroke="none"/><text fill="#000000" stroke="none" font-family="Arial" font-size="13px" font-style="normal" font-weight="normal" text-decoration="undefined" x="173" y="243.5" text-anchor="start" dominant-baseline="central" transform="matrix(1 0 0 1 -158 -22)">+run()</text></g></g><g><rect fill="#C0C0C0" stroke="none" x="175" y="375" width="183.0244140625" height="88" transform="matrix(1 0 0 1 -158 -22)" fill-opacity="0.2"/></g><g><rect fill="#ffffff" stroke="none" x="168" y="368" width="183.0244140625" height="88" transform="matrix(1 0 0 1 -158 -22)"/></g><g><path fill="none" stroke="#000000" paint-order="fill stroke markers" d=" M 10 346 L 193.0244140625 346 L 193.0244140625 434 L 10 434 L 10 346 Z Z" stroke-miterlimit="10" stroke-dasharray=""/></g><g><path fill="none" stroke="#000000" paint-order="fill stroke markers" d=" M 10 384 L 193.0244140625 384" stroke-miterlimit="10" stroke-dasharray=""/></g><g><path fill="none" stroke="#000000" paint-order="fill stroke markers" d=" M 10 409 L 193.0244140625 409" stroke-miterlimit="10" stroke-dasharray=""/></g><g><g><path fill="none" stroke="none"/><text fill="#000000" stroke="none" font-family="Arial" font-size="13px" font-style="normal" font-weight="normal" text-decoration="undefined" x="260.01220703125" y="379.5" text-anchor="middle" dominant-baseline="central" transform="matrix(1 0 0 1 -158 -22)">«entity»</text></g></g><g><g><path fill="none" stroke="none"/><text fill="#000000" stroke="none" font-family="Arial" font-size="13px" font-style="normal" font-weight="bold" text-decoration="undefined" x="260.01220703125" y="394.5" text-anchor="middle" dominant-baseline="central" transform="matrix(1 0 0 1 -158 -22)">FileHandler</text></g></g><g><g><path fill="none" stroke="none"/><text fill="#000000" stroke="none" font-family="Arial" font-size="13px" font-style="normal" font-weight="normal" text-decoration="undefined" x="173" y="419.5" text-anchor="start" dominant-baseline="central" transform="matrix(1 0 0 1 -158 -22)">-fileUrl: URL</text></g></g><g><g><path fill="none" stroke="none"/><text fill="#000000" stroke="none" font-family="Arial" font-size="13px" font-style="normal" font-weight="normal" text-decoration="undefined" x="173" y="444.5" text-anchor="start" dominant-baseline="central" transform="matrix(1 0 0 1 -158 -22)">+parse(URL fileUrl): TestCase</text></g></g><g><rect fill="#ffffff" stroke="none" x="384" y="32" width="366.560546875" height="99" transform="matrix(1 0 0 1 -158 -22)"/></g><g><path fill="none" stroke="#000000" paint-order="fill stroke markers" d=" M 226 10 L 592.560546875 10 L 592.560546875 109 L 226 109 L 226 10 Z Z" stroke-miterlimit="10" stroke-dasharray=""/></g><g><path fill="none" stroke="#000000" paint-order="fill stroke markers" d=" M 226 48 L 592.560546875 48" stroke-miterlimit="10" stroke-dasharray=""/></g><g><path fill="none" stroke="#000000" paint-order="fill stroke markers" d=" M 226 86 L 592.560546875 86" stroke-miterlimit="10" stroke-dasharray=""/></g><g><g><path fill="none" stroke="none"/><text fill="#000000" stroke="none" font-family="Arial" font-size="13px" font-style="normal" font-weight="normal" text-decoration="undefined" x="567.7802734375" y="43.5" text-anchor="middle" dominant-baseline="central" transform="matrix(1 0 0 1 -158 -22)">«entity»</text></g></g><g><g><path fill="none" stroke="none"/><text fill="#000000" stroke="none" font-family="Arial" font-size="13px" font-style="normal" font-weight="bold" text-decoration="undefined" x="567.7802734375" y="58.5" text-anchor="middle" dominant-baseline="central" transform="matrix(1 0 0 1 -158 -22)">Tester</text></g></g><g><g><path fill="none" stroke="none"/><text fill="#000000" stroke="none" font-family="Arial" font-size="13px" font-style="normal" font-weight="normal" text-decoration="undefined" x="389" y="81.5" text-anchor="start" dominant-baseline="central" transform="matrix(1 0 0 1 -158 -22)">-expectedResults: JSONObject</text></g></g><g><g><path fill="none" stroke="none"/><text fill="#000000" stroke="none" font-family="Arial" font-size="13px" font-style="normal" font-weight="normal" text-decoration="undefined" x="389" y="96.5" text-anchor="start" dominant-baseline="central" transform="matrix(1 0 0 1 -158 -22)">-actualResults: JSONObject</text></g></g><g><g><path fill="none" stroke="none"/><text fill="#000000" stroke="none" font-family="Arial" font-size="13px" font-style="normal" font-weight="normal" text-decoration="undefined" x="389" y="119.5" text-anchor="start" dominant-baseline="central" transform="matrix(1 0 0 1 -158 -22)">+compareResults(JSONObject expected, JSONObject actual)</text></g></g><g><rect fill="#ffffff" stroke="none" x="1168" y="352" width="122.0107421875" height="58" transform="matrix(1 0 0 1 -158 -22)"/></g><g><path fill="none" stroke="#000000" paint-order="fill stroke markers" d=" M 1010 330 L 1132.0107421875 330 L 1132.0107421875 388 L 1010 388 L 1010 330 Z Z" stroke-miterlimit="10" stroke-dasharray=""/></g><g><path fill="none" stroke="#000000" paint-order="fill stroke markers" d=" M 1010 368 L 1132.0107421875 368" stroke-miterlimit="10" stroke-dasharray=""/></g><g><path fill="none" stroke="#000000" paint-order="fill stroke markers" d=" M 1010 378 L 1132.0107421875 378" stroke-miterlimit="10" stroke-dasharray=""/></g><g><g><path fill="none" stroke="none"/><text fill="#000000" stroke="none" font-family="Arial" font-size="13px" font-style="normal" font-weight="normal" text-decoration="undefined" x="1229.50537109375" y="363.5" text-anchor="middle" dominant-baseline="central" transform="matrix(1 0 0 1 -158 -22)">«ConcreteProduct»</text></g></g><g><g><path fill="none" stroke="none"/><text fill="#000000" stroke="none" font-family="Arial" font-size="13px" font-style="italic" font-weight="bold" text-decoration="undefined" x="1229.50537109375" y="378.5" text-anchor="middle" dominant-baseline="central" transform="matrix(1 0 0 1 -158 -22)">PostRequest</text></g></g><g><rect fill="#ffffff" stroke="none" x="1168" y="416" width="122.0107421875" height="58" transform="matrix(1 0 0 1 -158 -22)"/></g><g><path fill="none" stroke="#000000" paint-order="fill stroke markers" d=" M 1010 394 L 1132.0107421875 394 L 1132.0107421875 452 L 1010 452 L 1010 394 Z Z" stroke-miterlimit="10" stroke-dasharray=""/></g><g><path fill="none" stroke="#000000" paint-order="fill stroke markers" d=" M 1010 432 L 1132.0107421875 432" stroke-miterlimit="10" stroke-dasharray=""/></g><g><path fill="none" stroke="#000000" paint-order="fill stroke markers" d=" M 1010 442 L 1132.0107421875 442" stroke-miterlimit="10" stroke-dasharray=""/></g><g><g><path fill="none" stroke="none"/><text fill="#000000" stroke="none" font-family="Arial" font-size="13px" font-style="normal" font-weight="normal" text-decoration="undefined" x="1229.50537109375" y="427.5" text-anchor="middle" dominant-baseline="central" transform="matrix(1 0 0 1 -158 -22)">«ConcreteProduct»</text></g></g><g><g><path fill="none" stroke="none"/><text fill="#000000" stroke="none" font-family="Arial" font-size="13px" font-style="italic" font-weight="bold" text-decoration="undefined" x="1229.50537109375" y="442.5" text-anchor="middle" dominant-baseline="central" transform="matrix(1 0 0 1 -158 -22)">GetRequest</text></g></g><g><rect fill="#ffffff" stroke="none" x="1168" y="480" width="122.0107421875" height="58" transform="matrix(1 0 0 1 -158 -22)"/></g><g><path fill="none" stroke="#000000" paint-order="fill stroke markers" d=" M 1010 458 L 1132.0107421875 458 L 1132.0107421875 516 L 1010 516 L 1010 458 Z Z" stroke-miterlimit="10" stroke-dasharray=""/></g><g><path fill="none" stroke="#000000" paint-order="fill stroke markers" d=" M 1010 496 L 1132.0107421875 496" stroke-miterlimit="10" stroke-dasharray=""/></g><g><path fill="none" stroke="#000000" paint-order="fill stroke markers" d=" M 1010 506 L 1132.0107421875 506" stroke-miterlimit="10" stroke-dasharray=""/></g><g><g><path fill="none" stroke="none"/><text fill="#000000" stroke="none" font-family="Arial" font-size="13px" font-style="normal" font-weight="normal" text-decoration="undefined" x="1229.50537109375" y="491.5" text-anchor="middle" dominant-baseline="central" transform="matrix(1 0 0 1 -158 -22)">«ConcreteProduct»</text></g></g><g><g><path fill="none" stroke="none"/><text fill="#000000" stroke="none" font-family="Arial" font-size="13px" font-style="italic" font-weight="bold" text-decoration="undefined" x="1229.50537109375" y="506.5" text-anchor="middle" dominant-baseline="central" transform="matrix(1 0 0 1 -158 -22)">PutRequest</text></g></g><g><rect fill="#ffffff" stroke="none" x="1168" y="544" width="122.0107421875" height="58" transform="matrix(1 0 0 1 -158 -22)"/></g><g><path fill="none" stroke="#000000" paint-order="fill stroke markers" d=" M 1010 522 L 1132.0107421875 522 L 1132.0107421875 580 L 1010 580 L 1010 522 Z Z" stroke-miterlimit="10" stroke-dasharray=""/></g><g><path fill="none" stroke="#000000" paint-order="fill stroke markers" d=" M 1010 560 L 1132.0107421875 560" stroke-miterlimit="10" stroke-dasharray=""/></g><g><path fill="none" stroke="#000000" paint-order="fill stroke markers" d=" M 1010 570 L 1132.0107421875 570" stroke-miterlimit="10" stroke-dasharray=""/></g><g><g><path fill="none" stroke="none"/><text fill="#000000" stroke="none" font-family="Arial" font-size="13px" font-style="normal" font-weight="normal" text-decoration="undefined" x="1229.50537109375" y="555.5" text-anchor="middle" dominant-baseline="central" transform="matrix(1 0 0 1 -158 -22)">«ConcreteProduct»</text></g></g><g><g><path fill="none" stroke="none"/><text fill="#000000" stroke="none" font-family="Arial" font-size="13px" font-style="italic" font-weight="bold" text-decoration="undefined" x="1229.50537109375" y="570.5" text-anchor="middle" dominant-baseline="central" transform="matrix(1 0 0 1 -158 -22)">DeleteRequest</text></g></g><g><rect fill="#ffffff" stroke="none" x="400" y="184" width="336" height="116" transform="matrix(1 0 0 1 -158 -22)"/></g><g><path fill="none" stroke="#000000" paint-order="fill stroke markers" d=" M 242 162 L 578 162 L 578 278 L 242 278 L 242 162 Z Z" stroke-miterlimit="10" stroke-dasharray=""/></g><g><path fill="none" stroke="#000000" paint-order="fill stroke markers" d=" M 242 200 L 578 200" stroke-miterlimit="10" stroke-dasharray=""/></g><g><path fill="none" stroke="#000000" paint-order="fill stroke markers" d=" M 242 223 L 578 223" stroke-miterlimit="10" stroke-dasharray=""/></g><g><g><path fill="none" stroke="none"/><text fill="#000000" stroke="none" font-family="Arial" font-size="13px" font-style="normal" font-weight="normal" text-decoration="undefined" x="568.5" y="195.5" text-anchor="middle" dominant-baseline="central" transform="matrix(1 0 0 1 -158 -22)">«control»</text></g></g><g><g><path fill="none" stroke="none"/><text fill="#000000" stroke="none" font-family="Arial" font-size="13px" font-style="normal" font-weight="bold" text-decoration="undefined" x="568.5" y="210.5" text-anchor="middle" dominant-baseline="central" transform="matrix(1 0 0 1 -158 -22)">RestClient</text></g></g><g><g><path fill="none" stroke="none"/><text fill="#000000" stroke="none" font-family="Arial" font-size="13px" font-style="normal" font-weight="normal" text-decoration="undefined" x="405" y="233.5" text-anchor="start" dominant-baseline="central" transform="matrix(1 0 0 1 -158 -22)">-testCase: TestCase</text></g></g><g><g><path fill="none" stroke="none"/><text fill="#000000" stroke="none" font-family="Arial" font-size="13px" font-style="normal" font-weight="normal" text-decoration="undefined" x="405" y="258.5" text-anchor="start" dominant-baseline="central" transform="matrix(1 0 0 1 -158 -22)">+buildRequest(String type, JSONObject body): Request</text></g></g><g><g><path fill="none" stroke="none"/><text fill="#000000" stroke="none" font-family="Arial" font-size="13px" font-style="normal" font-weight="normal" text-decoration="undefined" x="405" y="273.5" text-anchor="start" dominant-baseline="central" transform="matrix(1 0 0 1 -158 -22)">+execute(Request request): HttpResponse</text></g></g><g><g><path fill="none" stroke="none"/><text fill="#000000" stroke="none" font-family="Arial" font-size="13px" font-style="normal" font-weight="normal" text-decoration="undefined" x="405" y="288.5" text-anchor="start" dominant-baseline="central" transform="matrix(1 0 0 1 -158 -22)">+test(JSONObject expected, JSONObject actual)</text></g></g><g><rect fill="#C0C0C0" stroke="none" x="1175" y="199" width="195.34521484375" height="118" transform="matrix(1 0 0 1 -158 -22)" fill-opacity="0.2"/></g><g><rect fill="#ffffff" stroke="none" x="1168" y="192" width="195.34521484375" height="118" transform="matrix(1 0 0 1 -158 -22)"/></g><g><path fill="none" stroke="#000000" paint-order="fill stroke markers" d=" M 1010 170 L 1205.34521484375 170 L 1205.34521484375 288 L 1010 288 L 1010 170 Z Z" stroke-miterlimit="10" stroke-dasharray=""/></g><g><path fill="none" stroke="#000000" paint-order="fill stroke markers" d=" M 1010 208 L 1205.34521484375 208" stroke-miterlimit="10" stroke-dasharray=""/></g><g><path fill="none" stroke="#000000" paint-order="fill stroke markers" d=" M 1010 278 L 1205.34521484375 278" stroke-miterlimit="10" stroke-dasharray=""/></g><g><g><path fill="none" stroke="none"/><text fill="#000000" stroke="none" font-family="Arial" font-size="13px" font-style="normal" font-weight="normal" text-decoration="undefined" x="1266.172607421875" y="203.5" text-anchor="middle" dominant-baseline="central" transform="matrix(1 0 0 1 -158 -22)">«AbstractProduct»</text></g></g><g><g><path fill="none" stroke="none"/><text fill="#000000" stroke="none" font-family="Arial" font-size="13px" font-style="italic" font-weight="bold" text-decoration="undefined" x="1266.172607421875" y="218.5" text-anchor="middle" dominant-baseline="central" transform="matrix(1 0 0 1 -158 -22)">Request</text></g></g><g><g><path fill="none" stroke="none"/><text fill="#000000" stroke="none" font-family="Arial" font-size="13px" font-style="normal" font-weight="normal" text-decoration="undefined" x="1173" y="243.5" text-anchor="start" dominant-baseline="central" transform="matrix(1 0 0 1 -158 -22)">#request: HttpRequest</text></g></g><g><g><path fill="none" stroke="none"/><text fill="#000000" stroke="none" font-family="Arial" font-size="13px" font-style="normal" font-weight="normal" text-decoration="undefined" x="1173" y="258.5" text-anchor="start" dominant-baseline="central" transform="matrix(1 0 0 1 -158 -22)">#uri: URI</text></g></g><g><g><path fill="none" stroke="none"/><text fill="#000000" stroke="none" font-family="Arial" font-size="13px" font-style="normal" font-weight="normal" text-decoration="undefined" x="1173" y="273.5" text-anchor="start" dominant-baseline="central" transform="matrix(1 0 0 1 -158 -22)">#body: JSON</text></g></g><g><g><path fill="none" stroke="none"/><text fill="#000000" stroke="none" font-family="Arial" font-size="13px" font-style="normal" font-weight="normal" text-decoration="undefined" x="1173" y="288.5" text-anchor="start" dominant-baseline="central" transform="matrix(1 0 0 1 -158 -22)">#authenticators</text></g></g><g><rect fill="#ffffff" stroke="none" x="824" y="184" width="254.6005859375" height="84" transform="matrix(1 0 0 1 -158 -22)"/></g><g><path fill="none" stroke="#000000" paint-order="fill stroke markers" d=" M 666 162 L 920.6005859375 162 L 920.6005859375 246 L 666 246 L 666 162 Z Z" stroke-miterlimit="10" stroke-dasharray=""/></g><g><path fill="none" stroke="#000000" paint-order="fill stroke markers" d=" M 666 200 L 920.6005859375 200" stroke-miterlimit="10" stroke-dasharray=""/></g><g><path fill="none" stroke="#000000" paint-order="fill stroke markers" d=" M 666 223 L 920.6005859375 223" stroke-miterlimit="10" stroke-dasharray=""/></g><g><g><path fill="none" stroke="none"/><text fill="#000000" stroke="none" font-family="Arial" font-size="13px" font-style="normal" font-weight="normal" text-decoration="undefined" x="951.80029296875" y="195.5" text-anchor="middle" dominant-baseline="central" transform="matrix(1 0 0 1 -158 -22)">«Creator»</text></g></g><g><g><path fill="none" stroke="none"/><text fill="#000000" stroke="none" font-family="Arial" font-size="13px" font-style="normal" font-weight="bold" text-decoration="undefined" x="951.80029296875" y="210.5" text-anchor="middle" dominant-baseline="central" transform="matrix(1 0 0 1 -158 -22)">RequestFactory</text></g></g><g><g><path fill="none" stroke="none"/><text fill="#000000" stroke="none" font-family="Arial" font-size="13px" font-style="normal" font-weight="normal" text-decoration="undefined" x="829" y="233.5" text-anchor="start" dominant-baseline="central" transform="matrix(1 0 0 1 -158 -22)">-requestType: String</text></g></g><g><g><path fill="none" stroke="none"/><text fill="#000000" stroke="none" font-family="Arial" font-size="13px" font-style="normal" font-weight="normal" text-decoration="undefined" x="829" y="256.5" text-anchor="start" dominant-baseline="central" transform="matrix(1 0 0 1 -158 -22)">+createRequest(String type): Request</text></g></g><g><path fill="none" stroke="#000000" paint-order="fill stroke markers" d=" M 921 234 L 1010 234" stroke-miterlimit="10" stroke-dasharray=""/></g><g><path fill="none" stroke="#000000" paint-order="fill stroke markers" d=" M 999.8373251423759 238.209517756016 L 1010 234 L 999.8373251423759 229.790482243984" stroke-miterlimit="10" stroke-dasharray=""/></g><g><rect fill="#ffffff" stroke="none" x="1088" y="247" width="59.97900390625" height="13" transform="matrix(1 0 0 1 -158 -22)"/></g><g><g><path fill="none" stroke="none"/><text fill="#000000" stroke="none" font-family="Arial" font-size="13px" font-style="normal" font-weight="normal" text-decoration="undefined" x="1117.989501953125" y="253.5" text-anchor="middle" dominant-baseline="central" transform="matrix(1 0 0 1 -158 -22)">«Creates»</text></g></g><g><path fill="none" stroke="#000000" paint-order="fill stroke markers" d=" M 1132 522 L 1194 522 L 1194 522 A 8 8 0 0 0 1202 514 L 1202 288" stroke-miterlimit="10" stroke-dasharray=""/></g><g><path fill="#FFFFFF" stroke="none" paint-order="stroke fill markers" d=" M 1210.419035512032 308.3253497152483 L 1202 288 L 1193.580964487968 308.3253497152483"/></g><g><path fill="none" stroke="#000000" paint-order="fill stroke markers" d=" M 1210.419035512032 308.3253497152483 L 1202 288 L 1193.580964487968 308.3253497152483 L 1210.419035512032 308.3253497152483" stroke-miterlimit="10" stroke-dasharray=""/></g><g><rect fill="#ffffff" stroke="none" x="1296" y="539" width="61.4326171875" height="13" transform="matrix(1 0 0 1 -158 -22)"/></g><g><g><path fill="none" stroke="none"/><text fill="#000000" stroke="none" font-family="Arial" font-size="13px" font-style="normal" font-weight="normal" text-decoration="undefined" x="1326.71630859375" y="545.5" text-anchor="middle" dominant-baseline="central" transform="matrix(1 0 0 1 -158 -22)">«Extends»</text></g></g><g><path fill="none" stroke="#000000" paint-order="fill stroke markers" d=" M 1132 458 L 1194 458 L 1194 458 A 8 8 0 0 0 1202 450 L 1202 288" stroke-miterlimit="10" stroke-dasharray=""/></g><g><path fill="#FFFFFF" stroke="none" paint-order="stroke fill markers" d=" M 1210.419035512032 308.3253497152483 L 1202 288 L 1193.580964487968 308.3253497152483"/></g><g><path fill="none" stroke="#000000" paint-order="fill stroke markers" d=" M 1210.419035512032 308.3253497152483 L 1202 288 L 1193.580964487968 308.3253497152483 L 1210.419035512032 308.3253497152483" stroke-miterlimit="10" stroke-dasharray=""/></g><g><rect fill="#ffffff" stroke="none" x="1295" y="472" width="61.4326171875" height="13" transform="matrix(1 0 0 1 -158 -22)"/></g><g><g><path fill="none" stroke="none"/><text fill="#000000" stroke="none" font-family="Arial" font-size="13px" font-style="normal" font-weight="normal" text-decoration="undefined" x="1325.71630859375" y="478.5" text-anchor="middle" dominant-baseline="central" transform="matrix(1 0 0 1 -158 -22)">«Extends»</text></g></g><g><path fill="none" stroke="#000000" paint-order="fill stroke markers" d=" M 1132 394 L 1194 394 L 1194 394 A 8 8 0 0 0 1202 386 L 1202 288" stroke-miterlimit="10" stroke-dasharray=""/></g><g><path fill="#FFFFFF" stroke="none" paint-order="stroke fill markers" d=" M 1210.419035512032 308.3253497152483 L 1202 288 L 1193.580964487968 308.3253497152483"/></g><g><path fill="none" stroke="#000000" paint-order="fill stroke markers" d=" M 1210.419035512032 308.3253497152483 L 1202 288 L 1193.580964487968 308.3253497152483 L 1210.419035512032 308.3253497152483" stroke-miterlimit="10" stroke-dasharray=""/></g><g><rect fill="#ffffff" stroke="none" x="1295" y="408" width="61.4326171875" height="13" transform="matrix(1 0 0 1 -158 -22)"/></g><g><g><path fill="none" stroke="none"/><text fill="#000000" stroke="none" font-family="Arial" font-size="13px" font-style="normal" font-weight="normal" text-decoration="undefined" x="1325.71630859375" y="414.5" text-anchor="middle" dominant-baseline="central" transform="matrix(1 0 0 1 -158 -22)">«Extends»</text></g></g><g><path fill="none" stroke="#000000" paint-order="fill stroke markers" d=" M 1132 330 L 1194 330 L 1194 330 A 8 8 0 0 0 1202 322 L 1202 288" stroke-miterlimit="10" stroke-dasharray=""/></g><g><path fill="#FFFFFF" stroke="none" paint-order="stroke fill markers" d=" M 1210.419035512032 308.3253497152483 L 1202 288 L 1193.580964487968 308.3253497152483"/></g><g><path fill="none" stroke="#000000" paint-order="fill stroke markers" d=" M 1210.419035512032 308.3253497152483 L 1202 288 L 1193.580964487968 308.3253497152483 L 1210.419035512032 308.3253497152483" stroke-miterlimit="10" stroke-dasharray=""/></g><g><rect fill="#ffffff" stroke="none" x="1295" y="344" width="61.4326171875" height="13" transform="matrix(1 0 0 1 -158 -22)"/></g><g><g><path fill="none" stroke="none"/><text fill="#000000" stroke="none" font-family="Arial" font-size="13px" font-style="normal" font-weight="normal" text-decoration="undefined" x="1325.71630859375" y="350.5" text-anchor="middle" dominant-baseline="central" transform="matrix(1 0 0 1 -158 -22)">«Extends»</text></g></g><g><path fill="none" stroke="#000000" paint-order="fill stroke markers" d=" M 578 218 L 666 218" stroke-miterlimit="10" stroke-dasharray=""/></g><g><path fill="#000000" stroke="none" paint-order="stroke fill markers" d=" M 655.8373251423759 222.209517756016 L 666 218 L 655.8373251423758 213.790482243984 L 644 218"/></g><g><path fill="none" stroke="#000000" paint-order="fill stroke markers" d=" M 655.8373251423759 222.209517756016 L 666 218 L 655.8373251423758 213.790482243984 L 644 218 L 655.8373251423759 222.209517756016" stroke-miterlimit="10" stroke-dasharray=""/></g><g><rect fill="#ffffff" stroke="none" x="747" y="235" width="49.1435546875" height="13" transform="matrix(1 0 0 1 -158 -22)"/></g><g><g><path fill="none" stroke="none"/><text fill="#000000" stroke="none" font-family="Arial" font-size="13px" font-style="normal" font-weight="normal" text-decoration="undefined" x="771.57177734375" y="241.5" text-anchor="middle" dominant-baseline="central" transform="matrix(1 0 0 1 -158 -22)">«Asks»</text></g></g><g><rect fill="#C0C0C0" stroke="none" x="1175" y="63" width="192" height="72" transform="matrix(1 0 0 1 -158 -22)" fill-opacity="0.2"/></g><g><rect fill="#ffffff" stroke="none" x="1168" y="56" width="192" height="72" transform="matrix(1 0 0 1 -158 -22)"/></g><g><path fill="none" stroke="#000000" paint-order="fill stroke markers" d=" M 1010 34 L 1202 34 L 1202 106 L 1010 106 L 1010 34 Z Z" stroke-miterlimit="10" stroke-dasharray=""/></g><g><path fill="none" stroke="#000000" paint-order="fill stroke markers" d=" M 1010 72 L 1202 72" stroke-miterlimit="10" stroke-dasharray=""/></g><g><path fill="none" stroke="#000000" paint-order="fill stroke markers" d=" M 1010 82 L 1202 82" stroke-miterlimit="10" stroke-dasharray=""/></g><g><g><path fill="none" stroke="none"/><text fill="#000000" stroke="none" font-family="Arial" font-size="13px" font-style="normal" font-weight="normal" text-decoration="undefined" x="1264.5" y="67.5" text-anchor="middle" dominant-baseline="central" transform="matrix(1 0 0 1 -158 -22)">«interface»</text></g></g><g><g><path fill="none" stroke="none"/><text fill="#000000" stroke="none" font-family="Arial" font-size="13px" font-style="normal" font-weight="bold" text-decoration="undefined" x="1264.5" y="82.5" text-anchor="middle" dominant-baseline="central" transform="matrix(1 0 0 1 -158 -22)">IRequest</text></g></g><g><g><path fill="none" stroke="none"/><text fill="#000000" stroke="none" font-family="Arial" font-size="13px" font-style="normal" font-weight="normal" text-decoration="undefined" x="1173" y="115.5" text-anchor="start" dominant-baseline="central" transform="matrix(1 0 0 1 -158 -22)">+run(): HttpResponse</text></g></g><g><path fill="none" stroke="#000000" paint-order="fill stroke markers" d=" M 1107 169 L 1106 107" stroke-miterlimit="10" stroke-dasharray="3"/></g><g><path fill="#FFFFFF" stroke="none" paint-order="stroke fill markers" d=" M 1114.7457262257653 127.18693321889091 L 1106 107 L 1097.909844950202 127.4584796910774"/></g><g><path fill="none" stroke="#000000" paint-order="fill stroke markers" d=" M 1114.7457262257653 127.18693321889091 L 1106 107 L 1097.909844950202 127.4584796910774 L 1114.7457262257653 127.18693321889091" stroke-miterlimit="10" stroke-dasharray=""/></g><g><rect fill="#ffffff" stroke="none" x="1224" y="159" width="81.64990234375" height="13" transform="matrix(1 0 0 1 -158 -22)"/></g><g><g><path fill="none" stroke="none"/><text fill="#000000" stroke="none" font-family="Arial" font-size="13px" font-style="normal" font-weight="normal" text-decoration="undefined" x="1264.824951171875" y="165.5" text-anchor="middle" dominant-baseline="central" transform="matrix(1 0 0 1 -158 -22)">«Implements»</text></g></g><g><rect fill="#C0C0C0" stroke="none" x="495" y="415" width="221.3388671875" height="191" transform="matrix(1 0 0 1 -158 -22)" fill-opacity="0.2"/></g><g><rect fill="#ffffff" stroke="none" x="488" y="408" width="221.3388671875" height="191" transform="matrix(1 0 0 1 -158 -22)"/></g><g><path fill="none" stroke="#000000" paint-order="fill stroke markers" d=" M 330 386 L 551.3388671875 386 L 551.3388671875 577 L 330 577 L 330 386 Z Z" stroke-miterlimit="10" stroke-dasharray=""/></g><g><path fill="none" stroke="#000000" paint-order="fill stroke markers" d=" M 330 411 L 551.3388671875 411" stroke-miterlimit="10" stroke-dasharray=""/></g><g><path fill="none" stroke="#000000" paint-order="fill stroke markers" d=" M 330 494 L 551.3388671875 494" stroke-miterlimit="10" stroke-dasharray=""/></g><g><g><path fill="none" stroke="none"/><text fill="#000000" stroke="none" font-family="Arial" font-size="13px" font-style="normal" font-weight="bold" text-decoration="undefined" x="599.16943359375" y="421.5" text-anchor="middle" dominant-baseline="central" transform="matrix(1 0 0 1 -158 -22)">TestCase</text></g></g><g><g><path fill="none" stroke="none"/><text fill="#000000" stroke="none" font-family="Arial" font-size="13px" font-style="normal" font-weight="normal" text-decoration="undefined" x="493" y="444.5" text-anchor="start" dominant-baseline="central" transform="matrix(1 0 0 1 -158 -22)">-serverUrl: URL</text></g></g><g><g><path fill="none" stroke="none"/><text fill="#000000" stroke="none" font-family="Arial" font-size="13px" font-style="normal" font-weight="normal" text-decoration="undefined" x="493" y="459.5" text-anchor="start" dominant-baseline="central" transform="matrix(1 0 0 1 -158 -22)">-requestType: String</text></g></g><g><g><path fill="none" stroke="none"/><text fill="#000000" stroke="none" font-family="Arial" font-size="13px" font-style="normal" font-weight="normal" text-decoration="undefined" x="493" y="474.5" text-anchor="start" dominant-baseline="central" transform="matrix(1 0 0 1 -158 -22)">-body: JSONObject</text></g></g><g><g><path fill="none" stroke="none"/><text fill="#000000" stroke="none" font-family="Arial" font-size="13px" font-style="normal" font-weight="normal" text-decoration="undefined" x="493" y="489.5" text-anchor="start" dominant-baseline="central" transform="matrix(1 0 0 1 -158 -22)">-authenticators: List&lt;String&gt;</text></g></g><g><g><path fill="none" stroke="none"/><text fill="#000000" stroke="none" font-family="Arial" font-size="13px" font-style="normal" font-weight="normal" text-decoration="undefined" x="493" y="504.5" text-anchor="start" dominant-baseline="central" transform="matrix(1 0 0 1 -158 -22)">-expectedResults: JSONObject</text></g></g><g><g><path fill="none" stroke="none"/><text fill="#000000" stroke="none" font-family="Arial" font-size="13px" font-style="normal" font-weight="normal" text-decoration="undefined" x="493" y="527.5" text-anchor="start" dominant-baseline="central" transform="matrix(1 0 0 1 -158 -22)">+getURI(): URI</text></g></g><g><g><path fill="none" stroke="none"/><text fill="#000000" stroke="none" font-family="Arial" font-size="13px" font-style="normal" font-weight="normal" text-decoration="undefined" x="493" y="542.5" text-anchor="start" dominant-baseline="central" transform="matrix(1 0 0 1 -158 -22)">+getRequestType(): String</text></g></g><g><g><path fill="none" stroke="none"/><text fill="#000000" stroke="none" font-family="Arial" font-size="13px" font-style="normal" font-weight="normal" text-decoration="undefined" x="493" y="557.5" text-anchor="start" dominant-baseline="central" transform="matrix(1 0 0 1 -158 -22)">+getBody(): JSONObject</text></g></g><g><g><path fill="none" stroke="none"/><text fill="#000000" stroke="none" font-family="Arial" font-size="13px" font-style="normal" font-weight="normal" text-decoration="undefined" x="493" y="572.5" text-anchor="start" dominant-baseline="central" transform="matrix(1 0 0 1 -158 -22)">+getAuthenticators(): List&lt;String&gt;</text></g></g><g><g><path fill="none" stroke="none"/><text fill="#000000" stroke="none" font-family="Arial" font-size="13px" font-style="normal" font-weight="normal" text-decoration="undefined" x="493" y="587.5" text-anchor="start" dominant-baseline="central" transform="matrix(1 0 0 1 -158 -22)">+getExpectedResults(): JSONObject</text></g></g><g><path fill="none" stroke="#000000" paint-order="fill stroke markers" d=" M 193 386 L 330 386" stroke-miterlimit="10" stroke-dasharray=""/></g><g><path fill="#FFFFFF" stroke="none" paint-order="stroke fill markers" d=" M 319.83732514237585 390.209517756016 L 330 386 L 319.83732514237585 381.790482243984 L 308 386"/></g><g><path fill="none" stroke="#000000" paint-order="fill stroke markers" d=" M 319.83732514237585 390.209517756016 L 330 386 L 319.83732514237585 381.790482243984 L 308 386 L 319.83732514237585 390.209517756016" stroke-miterlimit="10" stroke-dasharray=""/></g><g><rect fill="#ffffff" stroke="none" x="387" y="399" width="59.97900390625" height="13" transform="matrix(1 0 0 1 -158 -22)"/></g><g><g><path fill="none" stroke="none"/><text fill="#000000" stroke="none" font-family="Arial" font-size="13px" font-style="normal" font-weight="normal" text-decoration="undefined" x="416.989501953125" y="405.5" text-anchor="middle" dominant-baseline="central" transform="matrix(1 0 0 1 -158 -22)">«Creates»</text></g></g><g><path fill="none" stroke="#000000" paint-order="fill stroke markers" d=" M 82 233 L 82 346" stroke-miterlimit="10" stroke-dasharray="3"/></g><g><path fill="none" stroke="#000000" paint-order="fill stroke markers" d=" M 77.790482243984 335.83732514237585 L 82 346 L 86.209517756016 335.83732514237585" stroke-miterlimit="10" stroke-dasharray=""/></g><g><rect fill="#ffffff" stroke="none" x="216" y="295" width="43.3544921875" height="13" transform="matrix(1 0 0 1 -158 -22)"/></g><g><g><path fill="none" stroke="none"/><text fill="#000000" stroke="none" font-family="Arial" font-size="13px" font-style="normal" font-weight="normal" text-decoration="undefined" x="237.67724609375" y="301.5" text-anchor="middle" dominant-baseline="central" transform="matrix(1 0 0 1 -158 -22)">«Calls»</text></g></g><g><path fill="none" stroke="#000000" paint-order="fill stroke markers" d=" M 282 278 L 282 338 L 282 338 A 8 8 0 0 1 274 346 L 193 346" stroke-miterlimit="10" stroke-dasharray="3"/></g><g><path fill="none" stroke="#000000" paint-order="fill stroke markers" d=" M 203.16267485762415 341.790482243984 L 193 346 L 203.16267485762415 350.209517756016" stroke-miterlimit="10" stroke-dasharray=""/></g><g><rect fill="#ffffff" stroke="none" x="417" y="327" width="44.078125" height="13" transform="matrix(1 0 0 1 -158 -22)"/></g><g><g><path fill="none" stroke="none"/><text fill="#000000" stroke="none" font-family="Arial" font-size="13px" font-style="normal" font-weight="normal" text-decoration="undefined" x="439.0390625" y="333.5" text-anchor="middle" dominant-baseline="central" transform="matrix(1 0 0 1 -158 -22)">«Uses»</text></g></g><g><path fill="none" stroke="#000000" paint-order="fill stroke markers" d=" M 154 202 L 242 202" stroke-miterlimit="10" stroke-dasharray="3"/></g><g><path fill="none" stroke="#000000" paint-order="fill stroke markers" d=" M 231.83732514237585 206.209517756016 L 242 202 L 231.83732514237585 197.790482243984" stroke-miterlimit="10" stroke-dasharray=""/></g><g><rect fill="#ffffff" stroke="none" x="328" y="215" width="44.078125" height="13" transform="matrix(1 0 0 1 -158 -22)"/></g><g><g><path fill="none" stroke="none"/><text fill="#000000" stroke="none" font-family="Arial" font-size="13px" font-style="normal" font-weight="normal" text-decoration="undefined" x="350.0390625" y="221.5" text-anchor="middle" dominant-baseline="central" transform="matrix(1 0 0 1 -158 -22)">«Uses»</text></g></g><g><path fill="none" stroke="#000000" paint-order="fill stroke markers" d=" M 422 162 L 422 109" stroke-miterlimit="10" stroke-dasharray="3"/></g><g><path fill="none" stroke="#000000" paint-order="fill stroke markers" d=" M 426.209517756016 119.16267485762415 L 422 109 L 417.790482243984 119.16267485762415" stroke-miterlimit="10" stroke-dasharray=""/></g><g><rect fill="#ffffff" stroke="none" x="528" y="150" width="44.078125" height="13" transform="matrix(1 0 0 1 -158 -22)"/></g><g><g><path fill="none" stroke="none"/><text fill="#000000" stroke="none" font-family="Arial" font-size="13px" font-style="normal" font-weight="normal" text-decoration="undefined" x="550.0390625" y="156.5" text-anchor="middle" dominant-baseline="central" transform="matrix(1 0 0 1 -158 -22)">«Uses»</text></g></g></g></svg>